<?xml version="1.0" encoding="UTF-8" standalone="no"?>
<!-- Created with Inkscape (http://www.inkscape.org/) -->

<svg
   xmlns:dc="http://purl.org/dc/elements/1.1/"
   xmlns:cc="http://creativecommons.org/ns#"
   xmlns:rdf="http://www.w3.org/1999/02/22-rdf-syntax-ns#"
   xmlns:svg="http://www.w3.org/2000/svg"
   xmlns="http://www.w3.org/2000/svg"
   xmlns:xlink="http://www.w3.org/1999/xlink"
   version="1.2"
   width="35"
   height="35"
   id="svg3004"
   xml:space="preserve"><metadata
     id="metadata3010"><rdf:RDF><cc:Work
         rdf:about=""><dc:format>image/svg+xml</dc:format><dc:type
           rdf:resource="http://purl.org/dc/dcmitype/StillImage" /><dc:title></dc:title></cc:Work></rdf:RDF></metadata><defs
     id="defs3008"><linearGradient
       id="linearGradient3810"><stop
         id="stop3812"
         style="stop-color:#ff0000;stop-opacity:1"
         offset="0" /><stop
         id="stop3814"
         style="stop-color:#000000;stop-opacity:1"
         offset="1" /></linearGradient><linearGradient
       id="linearGradient5731"><stop
         id="stop5733"
         style="stop-color:#000000;stop-opacity:1"
         offset="0" /><stop
         id="stop5747"
         style="stop-color:#00c400;stop-opacity:0.93725491"
         offset="1" /></linearGradient><linearGradient
       id="linearGradient5723"><stop
         id="stop5725"
         style="stop-color:#ff6600;stop-opacity:1"
         offset="0" /></linearGradient><linearGradient
       id="linearGradient5717"><stop
         id="stop5719"
         style="stop-color:#000000;stop-opacity:1"
         offset="0" /></linearGradient><linearGradient
       id="linearGradient4261"><stop
         id="stop4263"
         style="stop-color:#000000;stop-opacity:1"
         offset="0" /><stop
         id="stop4265"
         style="stop-color:#00ff00;stop-opacity:0.00392157"
         offset="1" /></linearGradient><linearGradient
       id="linearGradient3421"><stop
         id="stop3423"
         style="stop-color:#ff0000;stop-opacity:1"
         offset="0" /><stop
         id="stop4249"
         style="stop-color:#000000;stop-opacity:1"
         offset="1" /></linearGradient><linearGradient
       id="linearGradient3413"><stop
         id="stop3415"
         style="stop-color:#008000;stop-opacity:1"
         offset="0" /><stop
         id="stop3417"
         style="stop-color:#008000;stop-opacity:0"
         offset="1" /></linearGradient><linearGradient
       id="linearGradient3194"><stop
         id="stop3196"
         style="stop-color:#5599ff;stop-opacity:1"
         offset="0" /><stop
         id="stop3198"
         style="stop-color:#5599ff;stop-opacity:0"
         offset="1" /></linearGradient><clipPath
       id="clipPath3020"><path
         d="m 82.66,102.82 379.01,0 0,318.53 -379.01,0 0,-318.53 z"
         id="path3022" /></clipPath><clipPath
       id="clipPath3102"><path
         d="m 82.66,102.82 379.01,0 0,318.53 -379.01,0 0,-318.53 z"
         id="path3104" /></clipPath><linearGradient
       x1="360.24387"
       y1="207.78131"
       x2="499.46753"
       y2="280.72656"
       id="linearGradient3200"
       xlink:href="#linearGradient3194"
       gradientUnits="userSpaceOnUse" /><linearGradient
       x1="360.24387"
       y1="207.78131"
       x2="499.46753"
       y2="280.72656"
       id="linearGradient3200-3"
       xlink:href="#linearGradient3194-8"
       gradientUnits="userSpaceOnUse" /><linearGradient
       id="linearGradient3194-8"><stop
         id="stop3196-0"
         style="stop-color:#5599ff;stop-opacity:1"
         offset="0" /><stop
         id="stop3198-8"
         style="stop-color:#5599ff;stop-opacity:0"
         offset="1" /></linearGradient><linearGradient
       x1="360.24387"
       y1="207.78131"
       x2="499.46753"
       y2="280.72656"
       id="linearGradient3237"
       xlink:href="#linearGradient3194-8"
       gradientUnits="userSpaceOnUse" /><linearGradient
       x1="360.24387"
       y1="207.78131"
       x2="499.46753"
       y2="280.72656"
       id="linearGradient3245"
       xlink:href="#linearGradient3194-8"
       gradientUnits="userSpaceOnUse" /><linearGradient
       x1="360.24387"
       y1="207.78131"
       x2="499.46753"
       y2="280.72656"
       id="linearGradient3253"
       xlink:href="#linearGradient3194-8"
       gradientUnits="userSpaceOnUse" /><linearGradient
       x1="360.24387"
       y1="207.78131"
       x2="499.46753"
       y2="280.72656"
       id="linearGradient3269"
       xlink:href="#linearGradient3194-8"
       gradientUnits="userSpaceOnUse" /><linearGradient
       x1="479.56476"
       y1="243.34586"
       x2="330.07697"
       y2="241.75708"
       id="linearGradient3419"
       xlink:href="#linearGradient3413"
       gradientUnits="userSpaceOnUse" /><linearGradient
       x1="352.11905"
       y1="242.77773"
       x2="407.44174"
       y2="242.90009"
       id="linearGradient3427"
       xlink:href="#linearGradient3421"
       gradientUnits="userSpaceOnUse" /><linearGradient
       x1="479.56476"
       y1="243.34586"
       x2="330.07697"
       y2="241.75708"
       id="linearGradient3457"
       xlink:href="#linearGradient3413"
       gradientUnits="userSpaceOnUse" /><linearGradient
       x1="352.11905"
       y1="242.77773"
       x2="407.44174"
       y2="242.90009"
       id="linearGradient3463"
       xlink:href="#linearGradient3421"
       gradientUnits="userSpaceOnUse" /><linearGradient
       x1="366.92578"
       y1="241.30942"
       x2="468.23438"
       y2="241.30942"
       id="linearGradient5739"
       xlink:href="#linearGradient5731"
       gradientUnits="userSpaceOnUse" /><linearGradient
       x1="366.92578"
       y1="241.30942"
       x2="468.23438"
       y2="241.30942"
       id="linearGradient5751"
       xlink:href="#linearGradient5731"
       gradientUnits="userSpaceOnUse" /><linearGradient
       x1="366.92578"
       y1="241.30942"
       x2="468.23438"
       y2="241.30942"
       id="linearGradient5753"
       xlink:href="#linearGradient5731"
       gradientUnits="userSpaceOnUse" /><linearGradient
       x1="366.92578"
       y1="241.30942"
       x2="468.23438"
       y2="241.30942"
       id="linearGradient5755"
       xlink:href="#linearGradient5731"
       gradientUnits="userSpaceOnUse" /><linearGradient
       x1="366.92578"
       y1="241.30942"
       x2="468.23438"
       y2="241.30942"
       id="linearGradient5809"
       xlink:href="#linearGradient5731"
       gradientUnits="userSpaceOnUse" /><linearGradient
       x1="366.92578"
       y1="241.30942"
       x2="468.23438"
       y2="241.30942"
       id="linearGradient5811"
       xlink:href="#linearGradient5731"
       gradientUnits="userSpaceOnUse" /><linearGradient
       x1="365.24609"
       y1="241.30942"
       x2="390.71484"
       y2="241.30942"
       id="linearGradient3822"
       xlink:href="#linearGradient3810"
       gradientUnits="userSpaceOnUse" /><linearGradient
       x1="365.24609"
       y1="241.30942"
       x2="390.71484"
       y2="241.30942"
       id="linearGradient3042"
       xlink:href="#linearGradient3810"
       gradientUnits="userSpaceOnUse" /><linearGradient
       x1="365.24609"
       y1="241.30942"
       x2="390.71484"
       y2="241.30942"
       id="linearGradient3044"
       xlink:href="#linearGradient3810"
       gradientUnits="userSpaceOnUse" /><linearGradient
       x1="365.24609"
       y1="241.30942"
       x2="390.71484"
       y2="241.30942"
       id="linearGradient3046"
       xlink:href="#linearGradient3810"
       gradientUnits="userSpaceOnUse" /><linearGradient
       x1="366.92578"
       y1="241.30942"
       x2="468.23438"
       y2="241.30942"
       id="linearGradient3061"
       xlink:href="#linearGradient5731"
       gradientUnits="userSpaceOnUse" /><linearGradient
       x1="366.92578"
       y1="241.30942"
       x2="468.23438"
       y2="241.30942"
       id="linearGradient3063"
       xlink:href="#linearGradient5731"
       gradientUnits="userSpaceOnUse" /><linearGradient
       x1="365.24609"
       y1="241.30942"
       x2="390.71484"
       y2="241.30942"
       id="linearGradient3065"
       xlink:href="#linearGradient3810"
       gradientUnits="userSpaceOnUse" /><linearGradient
       x1="365.24609"
       y1="241.30942"
       x2="390.71484"
       y2="241.30942"
       id="linearGradient3067"
       xlink:href="#linearGradient3810"
       gradientUnits="userSpaceOnUse" /></defs><g
     transform="matrix(1.25,0,0,-1.25,-26.998032,175.98975)"
     id="g3012"><g
       transform="matrix(0.05889365,0,0,0.09416475,20.346433,102.18285)"
       id="g3045"><g
         id="g3014" /><path
         d="m 36.64,165.8 1.06,0 1.05,0 1.06,0 1.05,0 1.06,0 1.05,0 1.06,0.01 1.05,0 1.06,0 1.05,0 1.06,0.01 1.05,0 1.06,0.01 1.05,0 1.06,0.01 1.05,0.01 1.06,0.01 1.05,0 1.06,0.01 1.05,0.02 1.06,0.01 1.05,0.01 1.06,0.02 1.05,0.02 1.06,0.01 1.05,0.03 1.06,0.02 1.06,0.02 1.05,0.03 1.06,0.02 1.05,0.03 1.06,0.03 1.05,0.03 1.06,0.03 1.05,0.04 1.06,0.03 1.05,0.04 1.06,0.04 1.05,0.04 1.06,0.03 1.05,0.04 1.06,0.05 1.05,0.04 1.06,0.04 1.05,0.04 1.06,0.04 1.05,0.05 1.06,0.04 1.05,0.05 1.06,0.04 1.05,0.05 1.06,0.04 1.05,0.05 1.06,0.05 1.05,0.05 1.06,0.04 1.06,0.06 1.05,0.05 1.06,0.05 1.05,0.06 1.06,0.05 1.05,0.06 1.06,0.06 1.05,0.06 1.06,0.07 1.05,0.06 1.06,0.07 1.05,0.07 1.06,0.07 1.05,0.07 1.06,0.07 1.05,0.08 1.06,0.07 1.05,0.08 1.06,0.07 1.05,0.08 1.06,0.08 1.05,0.07 1.06,0.08 1.05,0.08 1.06,0.08 1.05,0.08 1.06,0.08 1.05,0.08 1.06,0.08 1.06,0.08 1.05,0.08 1.06,0.09 1.05,0.09 1.06,0.09 1.05,0.09 1.06,0.1 1.05,0.09 1.06,0.11 1.05,0.1 1.06,0.12 1.05,0.11 1.06,0.12 1.05,0.13 1.06,0.13 1.05,0.14 1.06,0.14 1.05,0.15 1.06,0.15 1.05,0.16 1.06,0.16 1.05,0.17 1.06,0.17 1.05,0.17 1.06,0.18 1.05,0.18 1.06,0.19 1.05,0.19 1.06,0.19 1.06,0.19 1.05,0.19 1.06,0.19 1.05,0.19 1.06,0.19 1.05,0.19 1.06,0.19 1.05,0.19 1.06,0.19 1.05,0.18 1.06,0.18 1.05,0.19 1.06,0.17 1.05,0.18 1.06,0.17 1.05,0.17 1.06,0.17 1.05,0.17 1.06,0.16 1.05,0.17 1.06,0.16 1.05,0.16 1.06,0.17 1.05,0.16 1.06,0.16 1.05,0.16 1.06,0.16 1.06,0.17 1.05,0.16 1.06,0.17 1.05,0.16 1.06,0.17 1.05,0.17 1.06,0.18 1.05,0.17 1.06,0.18 1.05,0.18 1.06,0.18 1.05,0.19 1.06,0.19 1.05,0.19 1.06,0.19 1.05,0.2 1.06,0.2 1.05,0.2 1.06,0.2 1.05,0.21 1.06,0.21 1.05,0.21 1.06,0.21 1.05,0.22 1.06,0.21 1.05,0.22 1.06,0.22 1.05,0.22 1.06,0.22 1.06,0.21 1.05,0.22 1.06,0.21 1.05,0.22 1.06,0.21 1.05,0.21 1.06,0.2 1.05,0.2 1.06,0.2 1.05,0.19 1.06,0.18 1.05,0.18 1.06,0.17 1.05,0.17 1.06,0.16 1.05,0.15 1.06,0.15 1.05,0.13 1.06,0.13 1.05,0.12 1.06,0.11 1.05,0.1 1.06,0.09 1.05,0.08 1.06,0.07 1.05,0.06 1.06,0.04 1.05,0.04 1.06,0.02 1.06,0.01 1.05,0.01 1.06,-0.02 1.05,-0.02 1.06,-0.04 1.05,-0.04 1.06,-0.06 1.05,-0.07 1.06,-0.08 1.05,-0.09 1.06,-0.1 1.05,-0.11 1.06,-0.12 1.05,-0.13 1.06,-0.14 1.05,-0.15 1.06,-0.15 1.05,-0.15 1.06,-0.17 1.05,-0.16 1.06,-0.17 1.05,-0.18 1.06,-0.17 1.05,-0.18 1.06,-0.18 1.05,-0.18 1.06,-0.18 1.05,-0.18 1.06,-0.17 1.06,-0.18 1.05,-0.17 1.06,-0.18 1.05,-0.17 1.06,-0.16 1.05,-0.16 1.06,-0.16 1.05,-0.16 1.06,-0.15 1.05,-0.15 1.06,-0.14 1.05,-0.14 1.06,-0.14 1.05,-0.13 1.06,-0.13 1.05,-0.12 1.06,-0.12 1.05,-0.12 1.06,-0.11 1.05,-0.11 1.06,-0.11 1.05,-0.1 1.06,-0.11 1.05,-0.09 1.06,-0.1 1.05,-0.1 1.06,-0.1 1.05,-0.1 1.06,-0.1 1.06,-0.1 1.05,-0.1 1.06,-0.1 1.05,-0.11 1.06,-0.11 1.05,-0.12 1.06,-0.12 1.05,-0.13 1.06,-0.13 1.05,-0.14 1.06,-0.14 1.05,-0.15 1.06,-0.16 1.05,-0.16 1.06,-0.17 1.05,-0.18 1.06,-0.18 1.05,-0.18 1.06,-0.19 1.05,-0.19 1.06,-0.2 1.05,-0.2 1.06,-0.2 1.05,-0.2 1.06,-0.2 1.05,-0.21 1.06,-0.2 1.06,-0.2 1.05,-0.21 1.06,-0.19 1.05,-0.2 1.06,-0.19 1.05,-0.19 1.06,-0.19 1.05,-0.18 1.06,-0.17 1.05,-0.17 1.06,-0.17 1.05,-0.16 1.06,-0.15 1.05,-0.15 1.06,-0.14 1.05,-0.14 1.06,-0.13 1.05,-0.13 1.06,-0.12 1.05,-0.12 1.06,-0.11 1.05,-0.11 1.06,-0.11 1.05,-0.1 1.06,-0.1 1.05,-0.09 1.06,-0.1 1.05,-0.09 1.06,-0.09 1.06,-0.09 1.05,-0.08 1.06,-0.09 1.05,-0.09 1.06,-0.08 1.05,-0.09 1.06,-0.09 1.05,-0.09 1.06,-0.09 1.05,-0.1 1.06,-0.09 1.05,-0.1 1.06,-0.1 1.05,-0.1 1.06,-0.1 1.05,-0.11 1.06,-0.11 1.05,-0.1 1.06,-0.12 1.05,-0.11 1.06,-0.11 1.05,-0.12 1.06,-0.12 1.05,-0.12 1.06,-0.11 1.05,-0.12 1.06,-0.12 1.05,-0.12 1.06,-0.12 1.06,-0.11 1.05,-0.12 1.06,-0.11 1.05,-0.11 1.06,-0.11 1.05,-0.1 1.06,-0.1 1.05,-0.1 1.06,-0.1 1.05,-0.09 1.06,-0.09 1.05,-0.09 1.06,-0.08 1.05,-0.08 1.06,-0.07 1.05,-0.07 1.06,-0.07 1.05,-0.06 1.06,-0.06 1.05,-0.06 1.06,-0.05 1.05,-0.05 1.06,-0.04 1.05,-0.04 1.06,-0.04 1.05,-0.04 1.06,-0.03 1.05,-0.03 1.06,-0.03 1.06,-0.03 1.05,-0.02 1.06,-0.02 1.05,-0.03 1.06,-0.02 1.05,-0.02 1.06,-0.01 1.05,-0.02 1.06,-0.02 1.05,-0.02 1.06,-0.02 1.05,-0.01 1.06,-0.02 1.05,-0.02 1.06,-0.02 1.05,-0.02 1.06,-0.02 1.05,-0.02 1.06,-0.02 1.05,-0.02 1.06,-0.03 1.05,-0.02 1.06,-0.02 1.05,-0.03 1.06,-0.02 1.05,-0.03 1.06,-0.02 1.05,-0.03 1.06,-0.02 1.06,-0.02 1.05,-0.03 1.06,-0.02 1.05,-0.02 1.06,-0.02 1.05,-0.03 1.06,-0.02 1.05,-0.02 1.06,-0.01 1.05,-0.02 1.06,-0.02 1.05,-0.01 1.06,-0.02 1.05,-0.01 1.06,-0.02 1.05,-0.01 1.06,-0.01 1.05,-0.01 0.7,-0.01"
         id="path3114"
         style="opacity:0.6;fill:#ff0000;stroke:#ff0000;stroke-width:1.5;stroke-linecap:round;stroke-linejoin:round;stroke-miterlimit:10;stroke-opacity:1;stroke-dasharray:none" /><path
         d="m 190.61,143.4 0.31,0 0.3,0 0.31,0 0.31,0 0.31,0.01 0.31,0 0.31,0 0.31,0 0.31,0.01 0.31,0 0.31,0 0.31,0.01 0.31,0 0.31,0.01 0.31,0.01 0.31,0.01 0.31,0 0.31,0.01 0.31,0.01 0.3,0.01 0.31,0.02 0.31,0.01 0.31,0.01 0.31,0.02 0.31,0.01 0.31,0.01 0.31,0.02 0.31,0.02 0.31,0.01 0.31,0.02 0.31,0.02 0.31,0.01 0.31,0.02 0.31,0.02 0.31,0.02 0.31,0.01 0.31,0.02 0.31,0.01 0.3,0.02 0.31,0.01 0.31,0.02 0.31,0.01 0.31,0.01 0.31,0.01 0.31,0.01 0.31,0.02 0.31,0.01 0.31,0.01 0.31,0.01 0.31,0 0.31,0.01 0.31,0.01 0.31,0.01 0.31,0.01 0.31,0.01 0.31,0.01 0.3,0.02 0.31,0.01 0.31,0.01 0.31,0.01 0.31,0.02 0.31,0.01 0.31,0.02 0.31,0.02 0.31,0.02 0.31,0.02 0.31,0.02 0.31,0.02 0.31,0.03 0.31,0.02 0.31,0.03 0.31,0.03 0.31,0.03 0.31,0.03 0.31,0.04 0.3,0.03 0.31,0.04 0.31,0.04 0.31,0.04 0.31,0.04 0.31,0.04 0.31,0.04 0.31,0.04 0.31,0.05 0.31,0.04 0.31,0.04 0.31,0.05 0.31,0.04 0.31,0.05 0.31,0.05 0.31,0.04 0.31,0.05 0.31,0.05 0.3,0.04 0.31,0.05 0.31,0.06 0.31,0.05 0.31,0.05 0.31,0.06 0.31,0.06 0.31,0.07 0.31,0.07 0.31,0.07 0.31,0.08 0.31,0.08 0.31,0.09 0.31,0.1 0.31,0.11 0.31,0.11 0.31,0.13 0.31,0.13 0.31,0.14 0.3,0.15 0.31,0.16 0.31,0.17 0.31,0.18 0.31,0.19 0.31,0.21 0.31,0.21 0.31,0.22 0.31,0.23 0.31,0.24 0.31,0.25 0.31,0.26 0.31,0.26 0.31,0.28 0.31,0.28 0.31,0.29 0.31,0.29 0.31,0.3 0.3,0.31 0.31,0.31 0.31,0.32 0.31,0.32 0.31,0.32 0.31,0.32 0.31,0.33 0.31,0.33 0.31,0.33 0.31,0.33 0.31,0.33 0.31,0.33 0.31,0.34 0.31,0.33 0.31,0.33 0.31,0.33 0.31,0.33 0.31,0.33 0.3,0.33 0.31,0.33 0.31,0.32 0.31,0.33 0.31,0.33 0.31,0.33 0.31,0.33 0.31,0.33 0.31,0.33 0.31,0.34 0.31,0.34 0.31,0.34 0.31,0.35 0.31,0.35 0.31,0.36 0.31,0.37 0.31,0.38 0.31,0.38 0.31,0.4 0.3,0.41 0.31,0.43 0.31,0.43 0.31,0.46 0.31,0.47 0.31,0.49 0.31,0.51 0.31,0.53 0.31,0.56 0.31,0.57 0.31,0.6 0.31,0.63 0.31,0.65 0.31,0.67 0.31,0.7 0.31,0.72 0.31,0.75 0.31,0.76 0.3,0.79 0.31,0.8 0.31,0.82 0.31,0.82 0.31,0.84 0.31,0.84 0.31,0.84 0.31,0.84 0.31,0.84 0.31,0.82 0.31,0.81 0.31,0.79 0.31,0.76 0.31,0.75 0.31,0.72 0.31,0.69 0.31,0.66 0.31,0.62 0.31,0.6 0.3,0.57 0.31,0.53 0.31,0.5 0.31,0.47 0.31,0.45 0.31,0.42 0.31,0.41 0.31,0.38 0.31,0.36 0.31,0.36 0.31,0.35 0.31,0.34 0.31,0.34 0.31,0.34 0.31,0.34 0.31,0.34 0.31,0.35 0.31,0.36 0.3,0.37 0.31,0.39 0.31,0.39 0.31,0.4 0.31,0.41 0.31,0.42 0.31,0.43 0.31,0.44 0.31,0.45 0.31,0.46 0.31,0.46 0.31,0.47 0.31,0.47 0.31,0.48 0.31,0.48 0.31,0.49 0.31,0.49 0.31,0.5 0.31,0.49 0.3,0.51 0.31,0.51 0.31,0.51 0.31,0.51 0.31,0.52 0.31,0.53 0.31,0.53 0.31,0.53 0.31,0.54 0.31,0.53 0.31,0.54 0.31,0.54 0.31,0.53 0.31,0.53 0.31,0.52 0.31,0.51 0.31,0.5 0.31,0.49 0.3,0.47 0.31,0.45 0.31,0.43 0.31,0.41 0.31,0.38 0.31,0.36 0.31,0.34 0.31,0.3 0.31,0.27 0.31,0.24 0.31,0.21 0.31,0.19 0.31,0.15 0.31,0.12 0.31,0.09 0.31,0.06 0.31,0.03 0.31,0 0.3,-0.03 0.31,-0.07 0.31,-0.09 0.31,-0.12 0.31,-0.16 0.31,-0.18 0.31,-0.22 0.31,-0.25 0.31,-0.29 0.31,-0.32 0.31,-0.35 0.31,-0.39 0.31,-0.43 0.31,-0.46 0.31,-0.51 0.31,-0.53 0.31,-0.57 0.31,-0.61 0.31,-0.65 0.3,-0.68 0.31,-0.7 0.31,-0.73 0.31,-0.76 0.31,-0.78 0.31,-0.8 0.31,-0.82 0.31,-0.82 0.31,-0.83 0.31,-0.83 0.31,-0.83 0.31,-0.83 0.31,-0.82 0.31,-0.81 0.31,-0.79 0.31,-0.77 0.31,-0.76 0.31,-0.73 0.3,-0.72 0.31,-0.69 0.31,-0.68 0.31,-0.64 0.31,-0.63 0.31,-0.61 0.31,-0.6 0.31,-0.58 0.31,-0.56 0.31,-0.56 0.31,-0.55 0.31,-0.55 0.31,-0.54 0.31,-0.54 0.31,-0.55 0.31,-0.56 0.31,-0.56 0.31,-0.57 0.31,-0.58 0.3,-0.59 0.31,-0.61 0.31,-0.61 0.31,-0.63 0.31,-0.64 0.31,-0.65 0.31,-0.67 0.31,-0.67 0.31,-0.69 0.31,-0.69 0.31,-0.69 0.31,-0.7 0.31,-0.7 0.31,-0.71 0.31,-0.7 0.31,-0.7 0.31,-0.7 0.31,-0.69 0.3,-0.69 0.31,-0.68 0.31,-0.67 0.31,-0.66 0.31,-0.64 0.31,-0.64 0.31,-0.61 0.31,-0.61 0.31,-0.58 0.31,-0.57 0.31,-0.55 0.31,-0.53 0.31,-0.51 0.31,-0.49 0.31,-0.47 0.31,-0.44 0.31,-0.42 0.31,-0.41 0.31,-0.38 0.3,-0.36 0.31,-0.35 0.31,-0.33 0.31,-0.31 0.31,-0.3 0.31,-0.29 0.31,-0.28 0.31,-0.28 0.31,-0.27 0.31,-0.27 0.31,-0.28 0.31,-0.27 0.31,-0.29 0.31,-0.3 0.31,-0.3 0.31,-0.33 0.31,-0.33 0.31,-0.35 0.3,-0.37 0.31,-0.39 0.31,-0.4 0.31,-0.42 0.31,-0.44 0.31,-0.44 0.31,-0.47 0.31,-0.47 0.31,-0.48 0.31,-0.48 0.31,-0.49 0.31,-0.49 0.31,-0.49 0.31,-0.48 0.31,-0.47 0.31,-0.46 0.31,-0.45 0.31,-0.44 0.3,-0.41 0.31,-0.4 0.31,-0.38 0.31,-0.35 0.31,-0.34 0.31,-0.31 0.31,-0.29 0.31,-0.27 0.31,-0.25 0.31,-0.22 0.31,-0.21 0.31,-0.18 0.31,-0.16 0.31,-0.15 0.31,-0.14 0.31,-0.12 0.31,-0.1 0.31,-0.09 0.31,-0.08 0.3,-0.07 0.31,-0.07 0.31,-0.05 0.31,-0.05 0.31,-0.04 0.31,-0.04 0.31,-0.03 0.31,-0.03 0.31,-0.03 0.31,-0.02 0.31,-0.03 0.31,-0.02 0.31,-0.02 0.31,-0.02 0.31,-0.02 0.31,-0.02 0.31,-0.02 0.31,-0.02 0.3,-0.02 0.31,-0.02 0.31,-0.03 0.31,-0.02 0.31,-0.03 0.31,-0.02 0.31,-0.03 0.31,-0.03 0.31,-0.04 0.31,-0.03 0.31,-0.03 0.31,-0.04 0.31,-0.04 0.31,-0.04 0.31,-0.04 0.31,-0.04 0.31,-0.04 0.31,-0.04 0.31,-0.05 0.3,-0.04 0.31,-0.04 0.31,-0.05 0.31,-0.04 0.31,-0.04 0.31,-0.04 0.31,-0.04 0.31,-0.04 0.31,-0.04 0.31,-0.04 0.31,-0.04 0.31,-0.03 0.31,-0.04 0.31,-0.03 0.31,-0.03 0.31,-0.03 0.31,-0.03 0.31,-0.03 0.3,-0.03 0.31,-0.03 0.31,-0.02 0.31,-0.02 0.31,-0.02 0.31,-0.03 0.31,-0.01 0.31,-0.02 0.31,-0.02 0.31,-0.01 0.31,-0.02 0.31,-0.01 0.31,-0.01 0.31,-0.01 0.31,-0.01 0.31,-0.01 0.31,-0.01 0.31,0 0.31,-0.01 0.3,0 0.31,-0.01 0.31,0 0.31,-0.01 0.31,0 0.31,0 0.31,0 0.31,-0.01 0.31,0 0.31,0 0.31,0 0.31,0"
         id="path3122"
         style="opacity:0.6;fill:#008000;stroke:#00cd00;stroke-width:1.5;stroke-linecap:round;stroke-linejoin:round;stroke-miterlimit:10;stroke-opacity:1;stroke-dasharray:none" /><flowRoot
         transform="matrix(2.7261004,0,0,-5.463663,-778.63012,1602.5741)"
         id="flowRoot3170"
         xml:space="preserve"
         style="font-size:40px;font-style:normal;font-weight:normal;line-height:125%;letter-spacing:0px;word-spacing:0px;fill:url(#linearGradient3063);fill-opacity:1;stroke:none;font-family:Sans"><flowRegion
           id="flowRegion3172"
           style="fill:url(#linearGradient5753);fill-opacity:1"><rect
             width="143"
             height="50"
             x="363"
             y="216"
             id="rect3174"
             style="fill:url(#linearGradient5751);fill-opacity:1" /></flowRegion><flowPara
           id="flowPara3176"
           style="fill:url(#linearGradient3061);fill-opacity:1">FOLD</flowPara></flowRoot><flowRoot
         transform="matrix(5.5216698,0,0,-7.7957225,-1995.1699,2172.5573)"
         id="flowRoot3170-1"
         xml:space="preserve"
         style="font-size:40px;font-style:normal;font-weight:normal;line-height:125%;letter-spacing:0px;word-spacing:0px;fill:url(#linearGradient3067);fill-opacity:1;stroke:none;font-family:Sans"><flowRegion
           id="flowRegion3172-1"
           style="fill:url(#linearGradient3044);fill-opacity:1"><rect
             width="143"
             height="50"
             x="363"
             y="216"
             id="rect3174-8"
             style="fill:url(#linearGradient3042);fill-opacity:1" /></flowRegion><flowPara
           id="flowPara3176-7"
           style="fill:url(#linearGradient3065);fill-opacity:1">G</flowPara></flowRoot><g
         transform="matrix(1,0,0,0.9063461,-25.6,9.629495)"
         id="g3016"
         style="opacity:0.4;fill:#000000;stroke:#000000;stroke-opacity:1"><g
           clip-path="url(#clipPath3020)"
           id="g3018"
           style="fill:#000000;stroke:#000000;stroke-opacity:1"><path
             d="m 196.4,114.63 0.07,0.01 0.07,0.01 0.07,0.01 0.07,0.01 0.07,0.02 0.08,0.02 0.07,0.02 0.07,0.03 0.07,0.03 0.07,0.04 0.07,0.04 0.08,0.05 0.07,0.05 0.07,0.06 0.07,0.07 0.07,0.08 0.07,0.1 0.08,0.1 0.07,0.11 0.07,0.13 0.07,0.13 0.07,0.16 0.08,0.16 0.07,0.19 0.07,0.19 0.07,0.21 0.07,0.23 0.07,0.25 0.08,0.26 0.07,0.28 0.07,0.29 0.07,0.31 0.07,0.33 0.07,0.34 0.08,0.35 0.07,0.36 0.07,0.37 0.07,0.38 0.07,0.39 0.07,0.4 0.08,0.4 0.07,0.4 0.07,0.41 0.07,0.4 0.07,0.41 0.07,0.4 0.08,0.41 0.07,0.39 0.07,0.4 0.07,0.39 0.07,0.39 0.07,0.38 0.08,0.38 0.07,0.38 0.07,0.38 0.07,0.38 0.07,0.38 0.07,0.39 0.08,0.4 0.07,0.4 0.07,0.41 0.07,0.43 0.07,0.45 0.07,0.46 0.08,0.48 0.07,0.51 0.07,0.53 0.07,0.56 0.07,0.58 0.07,0.62 0.08,0.64 0.07,0.68 0.07,0.7 0.07,0.74 0.07,0.76 0.07,0.8 0.08,0.83 0.07,0.86 0.07,0.88 0.07,0.91 0.07,0.94 0.07,0.96 0.08,0.98 0.07,1 0.07,1.02 0.07,1.05 0.07,1.06 0.07,1.09 0.08,1.1 0.07,1.12 0.07,1.14 0.07,1.16 0.07,1.18 0.07,1.21 0.08,1.23 0.07,1.26 0.07,1.3 0.07,1.33 0.07,1.37 0.07,1.41 0.08,1.44 0.07,1.5 0.07,1.56 0.07,1.6 0.07,1.65 0.07,1.71 0.08,1.76 0.07,1.83 0.07,1.88 0.07,1.93 0.07,1.99 0.07,2.03 0.08,2.09 0.07,2.13 0.07,2.16 0.07,2.19 0.07,2.22 0.08,2.24 0.07,2.24 0.07,2.25 0.07,2.25 0.07,2.24 0.07,2.21 0.08,2.19 0.07,2.16 0.07,2.13 0.07,2.08 0.07,2.05 0.07,1.99 0.08,1.94 0.07,1.9 0.07,1.85 0.07,1.82 0.07,1.76 0.07,1.72 0.08,1.69 0.07,1.67 0.07,1.65 0.07,1.63 0.07,1.62 0.07,1.63 0.08,1.63 0.07,1.65 0.07,1.68 0.07,1.71 0.07,1.74 0.07,1.8 0.08,1.84 0.07,1.89 0.07,1.96 0.07,2.03 0.07,2.1 0.07,2.16 0.08,2.23 0.07,2.32 0.07,2.39 0.07,2.47 0.07,2.53 0.07,2.62 0.08,2.68 0.07,2.78 0.07,2.84 0.07,2.92 0.07,2.98 0.07,3.05 0.08,3.13 0.07,3.19 0.07,3.26 0.07,3.31 0.07,3.37 0.07,3.43 0.08,3.48 0.07,3.53 0.07,3.56 0.07,3.59 0.07,3.62 0.07,3.65 0.08,3.65 0.07,3.65 0.07,3.64 0.07,3.63 0.07,3.59 0.07,3.54 0.08,3.49 0.07,3.43 0.07,3.36 0.07,3.26 0.07,3.14 0.07,3.04 0.08,2.91 0.07,2.8 0.07,2.64 0.07,2.47 0.07,2.32 0.07,2.17 0.08,2.01 0.07,1.85 0.07,1.65 0.07,1.49 0.07,1.34 0.07,1.18 0.08,1.04 0.07,0.87 0.07,0.73 0.07,0.61 0.07,0.5 0.07,0.39 0.08,0.29 0.07,0.19 0.07,0.11 0.07,0.06 0.07,-0.01 0.08,-0.05 0.07,-0.11 0.07,-0.14 0.07,-0.17 0.07,-0.2 0.07,-0.22 0.08,-0.24 0.07,-0.27 0.07,-0.28 0.07,-0.31 0.07,-0.33 0.07,-0.36 0.08,-0.4 0.07,-0.43 0.07,-0.46 0.07,-0.5 0.07,-0.55 0.07,-0.61 0.08,-0.65 0.07,-0.71 0.07,-0.76 0.07,-0.82 0.07,-0.89 0.07,-0.95 0.08,-1 0.07,-1.07 0.07,-1.12 0.07,-1.19 0.07,-1.25 0.07,-1.31 0.08,-1.36 0.07,-1.41 0.07,-1.47 0.07,-1.53 0.07,-1.58 0.07,-1.64 0.08,-1.68 0.07,-1.73 0.07,-1.8 0.07,-1.85 0.07,-1.9 0.07,-1.95 0.08,-2 0.07,-2.06 0.07,-2.11 0.07,-2.16 0.07,-2.2 0.07,-2.25 0.08,-2.28 0.07,-2.34 0.07,-2.36 0.07,-2.39 0.07,-2.42 0.07,-2.43 0.08,-2.45 0.07,-2.45 0.07,-2.46 0.07,-2.44 0.07,-2.44 0.07,-2.41 0.08,-2.38 0.07,-2.36 0.07,-2.32 0.07,-2.28 0.07,-2.24 0.07,-2.18 0.08,-2.13 0.07,-2.09 0.07,-2.03 0.07,-1.98 0.07,-1.92 0.07,-1.87 0.08,-1.82 0.07,-1.77 0.07,-1.74 0.07,-1.69 0.07,-1.65 0.07,-1.62 0.08,-1.6 0.07,-1.58 0.07,-1.57 0.07,-1.55 0.07,-1.55 0.07,-1.56 0.08,-1.56 0.07,-1.58 0.07,-1.59 0.07,-1.63 0.07,-1.64 0.07,-1.68 0.08,-1.72 0.07,-1.75 0.07,-1.8 0.07,-1.84 0.07,-1.88 0.08,-1.92 0.07,-1.97 0.07,-2.02 0.07,-2.06 0.07,-2.1 0.07,-2.13 0.08,-2.17 0.07,-2.21 0.07,-2.25 0.07,-2.27 0.07,-2.29 0.07,-2.31 0.08,-2.34 0.07,-2.35 0.07,-2.37 0.07,-2.37 0.07,-2.38 0.07,-2.39 0.08,-2.39 0.07,-2.38 0.07,-2.39 0.07,-2.37 0.07,-2.37 0.07,-2.36 0.08,-2.35 0.07,-2.33 0.07,-2.31 0.07,-2.3 0.07,-2.27 0.07,-2.24 0.08,-2.22 0.07,-2.18 0.07,-2.16 0.07,-2.12 0.07,-2.07 0.07,-2.03 0.08,-1.99 0.07,-1.95 0.07,-1.91 0.07,-1.84 0.07,-1.8 0.07,-1.75 0.08,-1.71 0.07,-1.66 0.07,-1.6 0.07,-1.55 0.07,-1.52 0.07,-1.47 0.08,-1.43 0.07,-1.39 0.07,-1.35 0.07,-1.32 0.07,-1.28 0.07,-1.26 0.08,-1.23 0.07,-1.2 0.07,-1.17 0.07,-1.15 0.07,-1.13 0.07,-1.1 0.08,-1.08 0.07,-1.06 0.07,-1.03 0.07,-1.01 0.07,-0.99 0.07,-0.97 0.08,-0.93 0.07,-0.92 0.07,-0.89 0.07,-0.86 0.07,-0.84 0.07,-0.81 0.08,-0.79 0.07,-0.76 0.07,-0.75 0.07,-0.71 0.07,-0.7 0.07,-0.67 0.08,-0.66 0.07,-0.63 0.07,-0.62 0.07,-0.61 0.07,-0.59 0.07,-0.57 0.08,-0.57 0.07,-0.55 0.07,-0.55 0.07,-0.53 0.07,-0.52 0.08,-0.52 0.07,-0.51 0.07,-0.49 0.07,-0.49 0.07,-0.48 0.07,-0.47 0.08,-0.47 0.07,-0.45 0.07,-0.44 0.07,-0.44 0.07,-0.42 0.07,-0.41 0.08,-0.4 0.07,-0.39 0.07,-0.38 0.07,-0.36 0.07,-0.35 0.07,-0.34 0.08,-0.32 0.07,-0.31 0.07,-0.3 0.07,-0.28 0.07,-0.27 0.07,-0.25 0.08,-0.23 0.07,-0.22 0.07,-0.2 0.07,-0.19 0.07,-0.17 0.07,-0.15 0.08,-0.13 0.07,-0.12 0.07,-0.1 0.07,-0.08 0.07,-0.06 0.07,-0.04 0.08,-0.03 0.07,-0.01 0.07,0.01 0.07,0.02 0.07,0.03 0.07,0.05 0.08,0.07 0.07,0.07 0.07,0.09 0.07,0.09 0.07,0.1 0.07,0.11 0.08,0.11 0.07,0.12 0.07,0.11 0.07,0.12 0.07,0.11 0.07,0.1 0.08,0.11 0.07,0.09 0.07,0.08 0.07,0.08 0.07,0.06 0.07,0.05 0.08,0.03 0.07,0.03 0.07,0 0.07,0 0.07,-0.03 0.07,-0.03 0.08,-0.05 0.07,-0.07 0.07,-0.07 0.07,-0.09 0.07,-0.1 0.07,-0.11 0.08,-0.12 0.07,-0.12 0.07,-0.14 0.07,-0.13 0.07,-0.14 0.07,-0.15 0.08,-0.14 0.07,-0.15 0.07,-0.14 0.07,-0.14 0.07,-0.14 0.07,-0.13 0.08,-0.13 0.07,-0.13 0.07,-0.12 0.07,-0.11 0.07,-0.11 0.07,-0.1 0.08,-0.09 0.07,-0.09 0.07,-0.08 0.07,-0.07 0.07,-0.07 0.08,-0.06 0.07,-0.05 0.07,-0.05 0.07,-0.05 0.07,-0.04 0.07,-0.03 0.08,-0.04 0.07,-0.02 0.07,-0.03 0.07,-0.02 0.07,-0.02 0.07,-0.01 0.08,-0.02 0.07,-0.01 0.07,-0.01 0.07,0 0.07,-0.01 0.07,-0.01 0.08,0 0.07,-0.01"
             id="path3024"
             style="fill:#000000;stroke:#000000;stroke-width:1.5;stroke-linecap:round;stroke-linejoin:round;stroke-miterlimit:10;stroke-opacity:1;stroke-dasharray:none" /></g></g></g></g></svg>