<?xml version="1.0" encoding="UTF-8" standalone="no"?>
<!-- Created with Inkscape (http://www.inkscape.org/) -->

<svg
   xmlns:osb="http://www.openswatchbook.org/uri/2009/osb"
   xmlns:dc="http://purl.org/dc/elements/1.1/"
   xmlns:cc="http://creativecommons.org/ns#"
   xmlns:rdf="http://www.w3.org/1999/02/22-rdf-syntax-ns#"
   xmlns:svg="http://www.w3.org/2000/svg"
   xmlns="http://www.w3.org/2000/svg"
   xmlns:xlink="http://www.w3.org/1999/xlink"
   xmlns:sodipodi="http://sodipodi.sourceforge.net/DTD/sodipodi-0.dtd"
   xmlns:inkscape="http://www.inkscape.org/namespaces/inkscape"
   id="svg3004"
   version="1.1"
   inkscape:version="0.48.1 r9760"
   width="595.28174"
   height="370.63718"
   xml:space="preserve"
   sodipodi:docname="logo.pdf"
   inkscape:export-filename="/Users/feeldead/Workspace/Projects/Active/RNAseqExp/Code/logo.png"
   inkscape:export-xdpi="90"
   inkscape:export-ydpi="90"><metadata
     id="metadata3010"><rdf:RDF><cc:Work
         rdf:about=""><dc:format>image/svg+xml</dc:format><dc:type
           rdf:resource="http://purl.org/dc/dcmitype/StillImage" /><dc:title></dc:title></cc:Work></rdf:RDF></metadata><defs
     id="defs3008"><linearGradient
       id="linearGradient3810"><stop
         id="stop3812"
         offset="0"
         style="stop-color:#ff0000;stop-opacity:1;" /><stop
         style="stop-color:#000000;stop-opacity:1;"
         offset="1"
         id="stop3814" /></linearGradient><linearGradient
       id="linearGradient5731"><stop
         style="stop-color:#000000;stop-opacity:1;"
         offset="0"
         id="stop5733" /><stop
         id="stop5747"
         offset="1"
         style="stop-color:#00c400;stop-opacity:0.93725491;" /></linearGradient><linearGradient
       id="linearGradient5723"
       osb:paint="solid"><stop
         style="stop-color:#ff6600;stop-opacity:1;"
         offset="0"
         id="stop5725" /></linearGradient><linearGradient
       id="linearGradient5717"
       osb:paint="solid"><stop
         style="stop-color:#000000;stop-opacity:1;"
         offset="0"
         id="stop5719" /></linearGradient><linearGradient
       id="linearGradient4261"><stop
         style="stop-color:#000000;stop-opacity:1;"
         offset="0"
         id="stop4263" /><stop
         style="stop-color:#00ff00;stop-opacity:0.00392157;"
         offset="1"
         id="stop4265" /></linearGradient><linearGradient
       id="linearGradient3421"><stop
         style="stop-color:#ff0000;stop-opacity:1;"
         offset="0"
         id="stop3423" /><stop
         id="stop4249"
         offset="1"
         style="stop-color:#000000;stop-opacity:1;" /></linearGradient><linearGradient
       inkscape:collect="always"
       id="linearGradient3413"><stop
         style="stop-color:#008000;stop-opacity:1;"
         offset="0"
         id="stop3415" /><stop
         style="stop-color:#008000;stop-opacity:0;"
         offset="1"
         id="stop3417" /></linearGradient><linearGradient
       inkscape:collect="always"
       id="linearGradient3194"><stop
         style="stop-color:#5599ff;stop-opacity:1;"
         offset="0"
         id="stop3196" /><stop
         style="stop-color:#5599ff;stop-opacity:0;"
         offset="1"
         id="stop3198" /></linearGradient><clipPath
       clipPathUnits="userSpaceOnUse"
       id="clipPath3020"><path
         d="m 82.66,102.82 379.01,0 0,318.53 -379.01,0 0,-318.53 z"
         id="path3022"
         inkscape:connector-curvature="0" /></clipPath><clipPath
       clipPathUnits="userSpaceOnUse"
       id="clipPath3102"><path
         d="m 82.66,102.82 379.01,0 0,318.53 -379.01,0 0,-318.53 z"
         id="path3104"
         inkscape:connector-curvature="0" /></clipPath><linearGradient
       inkscape:collect="always"
       xlink:href="#linearGradient3194"
       id="linearGradient3200"
       x1="360.24387"
       y1="207.78131"
       x2="499.46753"
       y2="280.72656"
       gradientUnits="userSpaceOnUse" /><linearGradient
       inkscape:collect="always"
       xlink:href="#linearGradient3194-8"
       id="linearGradient3200-3"
       x1="360.24387"
       y1="207.78131"
       x2="499.46753"
       y2="280.72656"
       gradientUnits="userSpaceOnUse" /><linearGradient
       inkscape:collect="always"
       id="linearGradient3194-8"><stop
         style="stop-color:#5599ff;stop-opacity:1;"
         offset="0"
         id="stop3196-0" /><stop
         style="stop-color:#5599ff;stop-opacity:0;"
         offset="1"
         id="stop3198-8" /></linearGradient><linearGradient
       inkscape:collect="always"
       xlink:href="#linearGradient3194-8"
       id="linearGradient3237"
       x1="360.24387"
       y1="207.78131"
       x2="499.46753"
       y2="280.72656"
       gradientUnits="userSpaceOnUse" /><linearGradient
       inkscape:collect="always"
       xlink:href="#linearGradient3194-8"
       id="linearGradient3245"
       x1="360.24387"
       y1="207.78131"
       x2="499.46753"
       y2="280.72656"
       gradientUnits="userSpaceOnUse" /><linearGradient
       inkscape:collect="always"
       xlink:href="#linearGradient3194-8"
       id="linearGradient3253"
       x1="360.24387"
       y1="207.78131"
       x2="499.46753"
       y2="280.72656"
       gradientUnits="userSpaceOnUse" /><linearGradient
       y2="280.72656"
       x2="499.46753"
       y1="207.78131"
       x1="360.24387"
       gradientUnits="userSpaceOnUse"
       id="linearGradient3269"
       xlink:href="#linearGradient3194-8"
       inkscape:collect="always" /><linearGradient
       inkscape:collect="always"
       xlink:href="#linearGradient3413"
       id="linearGradient3419"
       x1="479.56476"
       y1="243.34586"
       x2="330.07697"
       y2="241.75708"
       gradientUnits="userSpaceOnUse" /><linearGradient
       inkscape:collect="always"
       xlink:href="#linearGradient3421"
       id="linearGradient3427"
       x1="352.11905"
       y1="242.77773"
       x2="407.44174"
       y2="242.90009"
       gradientUnits="userSpaceOnUse" /><linearGradient
       inkscape:collect="always"
       xlink:href="#linearGradient3413"
       id="linearGradient3457"
       gradientUnits="userSpaceOnUse"
       x1="479.56476"
       y1="243.34586"
       x2="330.07697"
       y2="241.75708" /><linearGradient
       inkscape:collect="always"
       xlink:href="#linearGradient3421"
       id="linearGradient3463"
       gradientUnits="userSpaceOnUse"
       x1="352.11905"
       y1="242.77773"
       x2="407.44174"
       y2="242.90009" /><linearGradient
       inkscape:collect="always"
       xlink:href="#linearGradient5731"
       id="linearGradient5739"
       x1="366.92578"
       y1="241.30942"
       x2="468.23438"
       y2="241.30942"
       gradientUnits="userSpaceOnUse" /><linearGradient
       inkscape:collect="always"
       xlink:href="#linearGradient5731"
       id="linearGradient5751"
       gradientUnits="userSpaceOnUse"
       x1="366.92578"
       y1="241.30942"
       x2="468.23438"
       y2="241.30942" /><linearGradient
       inkscape:collect="always"
       xlink:href="#linearGradient5731"
       id="linearGradient5753"
       gradientUnits="userSpaceOnUse"
       x1="366.92578"
       y1="241.30942"
       x2="468.23438"
       y2="241.30942" /><linearGradient
       inkscape:collect="always"
       xlink:href="#linearGradient5731"
       id="linearGradient5755"
       gradientUnits="userSpaceOnUse"
       x1="366.92578"
       y1="241.30942"
       x2="468.23438"
       y2="241.30942" /><linearGradient
       inkscape:collect="always"
       xlink:href="#linearGradient5731"
       id="linearGradient5809"
       gradientUnits="userSpaceOnUse"
       x1="366.92578"
       y1="241.30942"
       x2="468.23438"
       y2="241.30942" /><linearGradient
       inkscape:collect="always"
       xlink:href="#linearGradient5731"
       id="linearGradient5811"
       gradientUnits="userSpaceOnUse"
       x1="366.92578"
       y1="241.30942"
       x2="468.23438"
       y2="241.30942" /><linearGradient
       inkscape:collect="always"
       xlink:href="#linearGradient3810"
       id="linearGradient3822"
       x1="365.24609"
       y1="241.30942"
       x2="390.71484"
       y2="241.30942"
       gradientUnits="userSpaceOnUse" /><linearGradient
       inkscape:collect="always"
       xlink:href="#linearGradient3810"
       id="linearGradient3042"
       gradientUnits="userSpaceOnUse"
       x1="365.24609"
       y1="241.30942"
       x2="390.71484"
       y2="241.30942" /><linearGradient
       inkscape:collect="always"
       xlink:href="#linearGradient3810"
       id="linearGradient3044"
       gradientUnits="userSpaceOnUse"
       x1="365.24609"
       y1="241.30942"
       x2="390.71484"
       y2="241.30942" /><linearGradient
       inkscape:collect="always"
       xlink:href="#linearGradient3810"
       id="linearGradient3046"
       gradientUnits="userSpaceOnUse"
       x1="365.24609"
       y1="241.30942"
       x2="390.71484"
       y2="241.30942" /></defs><sodipodi:namedview
     pagecolor="#ffffff"
     bordercolor="#666666"
     borderopacity="1"
     objecttolerance="10"
     gridtolerance="10"
     guidetolerance="10"
     inkscape:pageopacity="0"
     inkscape:pageshadow="2"
     inkscape:window-width="1920"
     inkscape:window-height="1032"
     id="namedview3006"
     showgrid="false"
     inkscape:zoom="1"
     inkscape:cx="275.14941"
     inkscape:cy="197.03593"
     inkscape:window-x="0"
     inkscape:window-y="0"
     inkscape:window-maximized="0"
     inkscape:current-layer="g3012"
     fit-margin-top="0"
     fit-margin-left="0"
     fit-margin-right="0"
     fit-margin-bottom="0" /><g
     id="g3012"
     inkscape:groupmode="layer"
     inkscape:label="GFOLDExample2"
     transform="matrix(1.25,0,0,-1.25,-26.998032,511.62695)"><g
       id="g3014" /><path
       d="m 36.64,165.8 1.06,0 1.05,0 1.06,0 1.05,0 1.06,0 1.05,0 1.06,0.01 1.05,0 1.06,0 1.05,0 1.06,0.01 1.05,0 1.06,0.01 1.05,0 1.06,0.01 1.05,0.01 1.06,0.01 1.05,0 1.06,0.01 1.05,0.02 1.06,0.01 1.05,0.01 1.06,0.02 1.05,0.02 1.06,0.01 1.05,0.03 1.06,0.02 1.06,0.02 1.05,0.03 1.06,0.02 1.05,0.03 1.06,0.03 1.05,0.03 1.06,0.03 1.05,0.04 1.06,0.03 1.05,0.04 1.06,0.04 1.05,0.04 1.06,0.03 1.05,0.04 1.06,0.05 1.05,0.04 1.06,0.04 1.05,0.04 1.06,0.04 1.05,0.05 1.06,0.04 1.05,0.05 1.06,0.04 1.05,0.05 1.06,0.04 1.05,0.05 1.06,0.05 1.05,0.05 1.06,0.04 1.06,0.06 1.05,0.05 1.06,0.05 1.05,0.06 1.06,0.05 1.05,0.06 1.06,0.06 1.05,0.06 1.06,0.07 1.05,0.06 1.06,0.07 1.05,0.07 1.06,0.07 1.05,0.07 1.06,0.07 1.05,0.08 1.06,0.07 1.05,0.08 1.06,0.07 1.05,0.08 1.06,0.08 1.05,0.07 1.06,0.08 1.05,0.08 1.06,0.08 1.05,0.08 1.06,0.08 1.05,0.08 1.06,0.08 1.06,0.08 1.05,0.08 1.06,0.09 1.05,0.09 1.06,0.09 1.05,0.09 1.06,0.1 1.05,0.09 1.06,0.11 1.05,0.1 1.06,0.12 1.05,0.11 1.06,0.12 1.05,0.13 1.06,0.13 1.05,0.14 1.06,0.14 1.05,0.15 1.06,0.15 1.05,0.16 1.06,0.16 1.05,0.17 1.06,0.17 1.05,0.17 1.06,0.18 1.05,0.18 1.06,0.19 1.05,0.19 1.06,0.19 1.06,0.19 1.05,0.19 1.06,0.19 1.05,0.19 1.06,0.19 1.05,0.19 1.06,0.19 1.05,0.19 1.06,0.19 1.05,0.18 1.06,0.18 1.05,0.19 1.06,0.17 1.05,0.18 1.06,0.17 1.05,0.17 1.06,0.17 1.05,0.17 1.06,0.16 1.05,0.17 1.06,0.16 1.05,0.16 1.06,0.17 1.05,0.16 1.06,0.16 1.05,0.16 1.06,0.16 1.06,0.17 1.05,0.16 1.06,0.17 1.05,0.16 1.06,0.17 1.05,0.17 1.06,0.18 1.05,0.17 1.06,0.18 1.05,0.18 1.06,0.18 1.05,0.19 1.06,0.19 1.05,0.19 1.06,0.19 1.05,0.2 1.06,0.2 1.05,0.2 1.06,0.2 1.05,0.21 1.06,0.21 1.05,0.21 1.06,0.21 1.05,0.22 1.06,0.21 1.05,0.22 1.06,0.22 1.05,0.22 1.06,0.22 1.06,0.21 1.05,0.22 1.06,0.21 1.05,0.22 1.06,0.21 1.05,0.21 1.06,0.2 1.05,0.2 1.06,0.2 1.05,0.19 1.06,0.18 1.05,0.18 1.06,0.17 1.05,0.17 1.06,0.16 1.05,0.15 1.06,0.15 1.05,0.13 1.06,0.13 1.05,0.12 1.06,0.11 1.05,0.1 1.06,0.09 1.05,0.08 1.06,0.07 1.05,0.06 1.06,0.04 1.05,0.04 1.06,0.02 1.06,0.01 1.05,0.01 1.06,-0.02 1.05,-0.02 1.06,-0.04 1.05,-0.04 1.06,-0.06 1.05,-0.07 1.06,-0.08 1.05,-0.09 1.06,-0.1 1.05,-0.11 1.06,-0.12 1.05,-0.13 1.06,-0.14 1.05,-0.15 1.06,-0.15 1.05,-0.15 1.06,-0.17 1.05,-0.16 1.06,-0.17 1.05,-0.18 1.06,-0.17 1.05,-0.18 1.06,-0.18 1.05,-0.18 1.06,-0.18 1.05,-0.18 1.06,-0.17 1.06,-0.18 1.05,-0.17 1.06,-0.18 1.05,-0.17 1.06,-0.16 1.05,-0.16 1.06,-0.16 1.05,-0.16 1.06,-0.15 1.05,-0.15 1.06,-0.14 1.05,-0.14 1.06,-0.14 1.05,-0.13 1.06,-0.13 1.05,-0.12 1.06,-0.12 1.05,-0.12 1.06,-0.11 1.05,-0.11 1.06,-0.11 1.05,-0.1 1.06,-0.11 1.05,-0.09 1.06,-0.1 1.05,-0.1 1.06,-0.1 1.05,-0.1 1.06,-0.1 1.06,-0.1 1.05,-0.1 1.06,-0.1 1.05,-0.11 1.06,-0.11 1.05,-0.12 1.06,-0.12 1.05,-0.13 1.06,-0.13 1.05,-0.14 1.06,-0.14 1.05,-0.15 1.06,-0.16 1.05,-0.16 1.06,-0.17 1.05,-0.18 1.06,-0.18 1.05,-0.18 1.06,-0.19 1.05,-0.19 1.06,-0.2 1.05,-0.2 1.06,-0.2 1.05,-0.2 1.06,-0.2 1.05,-0.21 1.06,-0.2 1.06,-0.2 1.05,-0.21 1.06,-0.19 1.05,-0.2 1.06,-0.19 1.05,-0.19 1.06,-0.19 1.05,-0.18 1.06,-0.17 1.05,-0.17 1.06,-0.17 1.05,-0.16 1.06,-0.15 1.05,-0.15 1.06,-0.14 1.05,-0.14 1.06,-0.13 1.05,-0.13 1.06,-0.12 1.05,-0.12 1.06,-0.11 1.05,-0.11 1.06,-0.11 1.05,-0.1 1.06,-0.1 1.05,-0.09 1.06,-0.1 1.05,-0.09 1.06,-0.09 1.06,-0.09 1.05,-0.08 1.06,-0.09 1.05,-0.09 1.06,-0.08 1.05,-0.09 1.06,-0.09 1.05,-0.09 1.06,-0.09 1.05,-0.1 1.06,-0.09 1.05,-0.1 1.06,-0.1 1.05,-0.1 1.06,-0.1 1.05,-0.11 1.06,-0.11 1.05,-0.1 1.06,-0.12 1.05,-0.11 1.06,-0.11 1.05,-0.12 1.06,-0.12 1.05,-0.12 1.06,-0.11 1.05,-0.12 1.06,-0.12 1.05,-0.12 1.06,-0.12 1.06,-0.11 1.05,-0.12 1.06,-0.11 1.05,-0.11 1.06,-0.11 1.05,-0.1 1.06,-0.1 1.05,-0.1 1.06,-0.1 1.05,-0.09 1.06,-0.09 1.05,-0.09 1.06,-0.08 1.05,-0.08 1.06,-0.07 1.05,-0.07 1.06,-0.07 1.05,-0.06 1.06,-0.06 1.05,-0.06 1.06,-0.05 1.05,-0.05 1.06,-0.04 1.05,-0.04 1.06,-0.04 1.05,-0.04 1.06,-0.03 1.05,-0.03 1.06,-0.03 1.06,-0.03 1.05,-0.02 1.06,-0.02 1.05,-0.03 1.06,-0.02 1.05,-0.02 1.06,-0.01 1.05,-0.02 1.06,-0.02 1.05,-0.02 1.06,-0.02 1.05,-0.01 1.06,-0.02 1.05,-0.02 1.06,-0.02 1.05,-0.02 1.06,-0.02 1.05,-0.02 1.06,-0.02 1.05,-0.02 1.06,-0.03 1.05,-0.02 1.06,-0.02 1.05,-0.03 1.06,-0.02 1.05,-0.03 1.06,-0.02 1.05,-0.03 1.06,-0.02 1.06,-0.02 1.05,-0.03 1.06,-0.02 1.05,-0.02 1.06,-0.02 1.05,-0.03 1.06,-0.02 1.05,-0.02 1.06,-0.01 1.05,-0.02 1.06,-0.02 1.05,-0.01 1.06,-0.02 1.05,-0.01 1.06,-0.02 1.05,-0.01 1.06,-0.01 1.05,-0.01 0.7,-0.01"
       style="opacity:0.6;fill:#ff0000;stroke:#ff0000;stroke-width:1.5;stroke-linecap:round;stroke-linejoin:round;stroke-miterlimit:10;stroke-opacity:1;stroke-dasharray:none"
       id="path3114"
       inkscape:connector-curvature="0" /><path
       d="m 190.61,143.4 0.31,0 0.3,0 0.31,0 0.31,0 0.31,0.01 0.31,0 0.31,0 0.31,0 0.31,0.01 0.31,0 0.31,0 0.31,0.01 0.31,0 0.31,0.01 0.31,0.01 0.31,0.01 0.31,0 0.31,0.01 0.31,0.01 0.3,0.01 0.31,0.02 0.31,0.01 0.31,0.01 0.31,0.02 0.31,0.01 0.31,0.01 0.31,0.02 0.31,0.02 0.31,0.01 0.31,0.02 0.31,0.02 0.31,0.01 0.31,0.02 0.31,0.02 0.31,0.02 0.31,0.01 0.31,0.02 0.31,0.01 0.3,0.02 0.31,0.01 0.31,0.02 0.31,0.01 0.31,0.01 0.31,0.01 0.31,0.01 0.31,0.02 0.31,0.01 0.31,0.01 0.31,0.01 0.31,0 0.31,0.01 0.31,0.01 0.31,0.01 0.31,0.01 0.31,0.01 0.31,0.01 0.3,0.02 0.31,0.01 0.31,0.01 0.31,0.01 0.31,0.02 0.31,0.01 0.31,0.02 0.31,0.02 0.31,0.02 0.31,0.02 0.31,0.02 0.31,0.02 0.31,0.03 0.31,0.02 0.31,0.03 0.31,0.03 0.31,0.03 0.31,0.03 0.31,0.04 0.3,0.03 0.31,0.04 0.31,0.04 0.31,0.04 0.31,0.04 0.31,0.04 0.31,0.04 0.31,0.04 0.31,0.05 0.31,0.04 0.31,0.04 0.31,0.05 0.31,0.04 0.31,0.05 0.31,0.05 0.31,0.04 0.31,0.05 0.31,0.05 0.3,0.04 0.31,0.05 0.31,0.06 0.31,0.05 0.31,0.05 0.31,0.06 0.31,0.06 0.31,0.07 0.31,0.07 0.31,0.07 0.31,0.08 0.31,0.08 0.31,0.09 0.31,0.1 0.31,0.11 0.31,0.11 0.31,0.13 0.31,0.13 0.31,0.14 0.3,0.15 0.31,0.16 0.31,0.17 0.31,0.18 0.31,0.19 0.31,0.21 0.31,0.21 0.31,0.22 0.31,0.23 0.31,0.24 0.31,0.25 0.31,0.26 0.31,0.26 0.31,0.28 0.31,0.28 0.31,0.29 0.31,0.29 0.31,0.3 0.3,0.31 0.31,0.31 0.31,0.32 0.31,0.32 0.31,0.32 0.31,0.32 0.31,0.33 0.31,0.33 0.31,0.33 0.31,0.33 0.31,0.33 0.31,0.33 0.31,0.34 0.31,0.33 0.31,0.33 0.31,0.33 0.31,0.33 0.31,0.33 0.3,0.33 0.31,0.33 0.31,0.32 0.31,0.33 0.31,0.33 0.31,0.33 0.31,0.33 0.31,0.33 0.31,0.33 0.31,0.34 0.31,0.34 0.31,0.34 0.31,0.35 0.31,0.35 0.31,0.36 0.31,0.37 0.31,0.38 0.31,0.38 0.31,0.4 0.3,0.41 0.31,0.43 0.31,0.43 0.31,0.46 0.31,0.47 0.31,0.49 0.31,0.51 0.31,0.53 0.31,0.56 0.31,0.57 0.31,0.6 0.31,0.63 0.31,0.65 0.31,0.67 0.31,0.7 0.31,0.72 0.31,0.75 0.31,0.76 0.3,0.79 0.31,0.8 0.31,0.82 0.31,0.82 0.31,0.84 0.31,0.84 0.31,0.84 0.31,0.84 0.31,0.84 0.31,0.82 0.31,0.81 0.31,0.79 0.31,0.76 0.31,0.75 0.31,0.72 0.31,0.69 0.31,0.66 0.31,0.62 0.31,0.6 0.3,0.57 0.31,0.53 0.31,0.5 0.31,0.47 0.31,0.45 0.31,0.42 0.31,0.41 0.31,0.38 0.31,0.36 0.31,0.36 0.31,0.35 0.31,0.34 0.31,0.34 0.31,0.34 0.31,0.34 0.31,0.34 0.31,0.35 0.31,0.36 0.3,0.37 0.31,0.39 0.31,0.39 0.31,0.4 0.31,0.41 0.31,0.42 0.31,0.43 0.31,0.44 0.31,0.45 0.31,0.46 0.31,0.46 0.31,0.47 0.31,0.47 0.31,0.48 0.31,0.48 0.31,0.49 0.31,0.49 0.31,0.5 0.31,0.49 0.3,0.51 0.31,0.51 0.31,0.51 0.31,0.51 0.31,0.52 0.31,0.53 0.31,0.53 0.31,0.53 0.31,0.54 0.31,0.53 0.31,0.54 0.31,0.54 0.31,0.53 0.31,0.53 0.31,0.52 0.31,0.51 0.31,0.5 0.31,0.49 0.3,0.47 0.31,0.45 0.31,0.43 0.31,0.41 0.31,0.38 0.31,0.36 0.31,0.34 0.31,0.3 0.31,0.27 0.31,0.24 0.31,0.21 0.31,0.19 0.31,0.15 0.31,0.12 0.31,0.09 0.31,0.06 0.31,0.03 0.31,0 0.3,-0.03 0.31,-0.07 0.31,-0.09 0.31,-0.12 0.31,-0.16 0.31,-0.18 0.31,-0.22 0.31,-0.25 0.31,-0.29 0.31,-0.32 0.31,-0.35 0.31,-0.39 0.31,-0.43 0.31,-0.46 0.31,-0.51 0.31,-0.53 0.31,-0.57 0.31,-0.61 0.31,-0.65 0.3,-0.68 0.31,-0.7 0.31,-0.73 0.31,-0.76 0.31,-0.78 0.31,-0.8 0.31,-0.82 0.31,-0.82 0.31,-0.83 0.31,-0.83 0.31,-0.83 0.31,-0.83 0.31,-0.82 0.31,-0.81 0.31,-0.79 0.31,-0.77 0.31,-0.76 0.31,-0.73 0.3,-0.72 0.31,-0.69 0.31,-0.68 0.31,-0.64 0.31,-0.63 0.31,-0.61 0.31,-0.6 0.31,-0.58 0.31,-0.56 0.31,-0.56 0.31,-0.55 0.31,-0.55 0.31,-0.54 0.31,-0.54 0.31,-0.55 0.31,-0.56 0.31,-0.56 0.31,-0.57 0.31,-0.58 0.3,-0.59 0.31,-0.61 0.31,-0.61 0.31,-0.63 0.31,-0.64 0.31,-0.65 0.31,-0.67 0.31,-0.67 0.31,-0.69 0.31,-0.69 0.31,-0.69 0.31,-0.7 0.31,-0.7 0.31,-0.71 0.31,-0.7 0.31,-0.7 0.31,-0.7 0.31,-0.69 0.3,-0.69 0.31,-0.68 0.31,-0.67 0.31,-0.66 0.31,-0.64 0.31,-0.64 0.31,-0.61 0.31,-0.61 0.31,-0.58 0.31,-0.57 0.31,-0.55 0.31,-0.53 0.31,-0.51 0.31,-0.49 0.31,-0.47 0.31,-0.44 0.31,-0.42 0.31,-0.41 0.31,-0.38 0.3,-0.36 0.31,-0.35 0.31,-0.33 0.31,-0.31 0.31,-0.3 0.31,-0.29 0.31,-0.28 0.31,-0.28 0.31,-0.27 0.31,-0.27 0.31,-0.28 0.31,-0.27 0.31,-0.29 0.31,-0.3 0.31,-0.3 0.31,-0.33 0.31,-0.33 0.31,-0.35 0.3,-0.37 0.31,-0.39 0.31,-0.4 0.31,-0.42 0.31,-0.44 0.31,-0.44 0.31,-0.47 0.31,-0.47 0.31,-0.48 0.31,-0.48 0.31,-0.49 0.31,-0.49 0.31,-0.49 0.31,-0.48 0.31,-0.47 0.31,-0.46 0.31,-0.45 0.31,-0.44 0.3,-0.41 0.31,-0.4 0.31,-0.38 0.31,-0.35 0.31,-0.34 0.31,-0.31 0.31,-0.29 0.31,-0.27 0.31,-0.25 0.31,-0.22 0.31,-0.21 0.31,-0.18 0.31,-0.16 0.31,-0.15 0.31,-0.14 0.31,-0.12 0.31,-0.1 0.31,-0.09 0.31,-0.08 0.3,-0.07 0.31,-0.07 0.31,-0.05 0.31,-0.05 0.31,-0.04 0.31,-0.04 0.31,-0.03 0.31,-0.03 0.31,-0.03 0.31,-0.02 0.31,-0.03 0.31,-0.02 0.31,-0.02 0.31,-0.02 0.31,-0.02 0.31,-0.02 0.31,-0.02 0.31,-0.02 0.3,-0.02 0.31,-0.02 0.31,-0.03 0.31,-0.02 0.31,-0.03 0.31,-0.02 0.31,-0.03 0.31,-0.03 0.31,-0.04 0.31,-0.03 0.31,-0.03 0.31,-0.04 0.31,-0.04 0.31,-0.04 0.31,-0.04 0.31,-0.04 0.31,-0.04 0.31,-0.04 0.31,-0.05 0.3,-0.04 0.31,-0.04 0.31,-0.05 0.31,-0.04 0.31,-0.04 0.31,-0.04 0.31,-0.04 0.31,-0.04 0.31,-0.04 0.31,-0.04 0.31,-0.04 0.31,-0.03 0.31,-0.04 0.31,-0.03 0.31,-0.03 0.31,-0.03 0.31,-0.03 0.31,-0.03 0.3,-0.03 0.31,-0.03 0.31,-0.02 0.31,-0.02 0.31,-0.02 0.31,-0.03 0.31,-0.01 0.31,-0.02 0.31,-0.02 0.31,-0.01 0.31,-0.02 0.31,-0.01 0.31,-0.01 0.31,-0.01 0.31,-0.01 0.31,-0.01 0.31,-0.01 0.31,0 0.31,-0.01 0.3,0 0.31,-0.01 0.31,0 0.31,-0.01 0.31,0 0.31,0 0.31,0 0.31,-0.01 0.31,0 0.31,0 0.31,0 0.31,0"
       style="opacity:0.6;fill:#008000;stroke:#00cd00;stroke-width:1.5;stroke-linecap:round;stroke-linejoin:round;stroke-miterlimit:10;stroke-opacity:1;stroke-dasharray:none"
       id="path3122"
       inkscape:connector-curvature="0" /><flowRoot
       inkscape:export-filename="/Users/feeldead/Workspace/Projects/Active/RNAseqExp/Code/logo.png"
       inkscape:export-ydpi="90"
       inkscape:export-xdpi="90"
       transform="matrix(2.7261004,0,0,-5.463663,-778.63012,1602.5741)"
       style="font-size:40px;font-style:normal;font-weight:normal;line-height:125%;letter-spacing:0px;word-spacing:0px;fill:url(#linearGradient5811);fill-opacity:1;stroke:none;font-family:Sans"
       id="flowRoot3170"
       xml:space="preserve"><flowRegion
         style="fill:url(#linearGradient5753);fill-opacity:1"
         id="flowRegion3172"><rect
           style="fill:url(#linearGradient5751);fill-opacity:1"
           y="216"
           x="363"
           height="50"
           width="143"
           id="rect3174" /></flowRegion><flowPara
         style="fill:url(#linearGradient5809);fill-opacity:1"
         id="flowPara3176">FOLD</flowPara></flowRoot><flowRoot
       transform="matrix(5.5216698,0,0,-7.7957225,-1995.1699,2172.5573)"
       style="font-size:40px;font-style:normal;font-weight:normal;line-height:125%;letter-spacing:0px;word-spacing:0px;fill:url(#linearGradient3822);fill-opacity:1;stroke:none;font-family:Sans"
       id="flowRoot3170-1"
       xml:space="preserve"><flowRegion
         style="fill:url(#linearGradient3044);fill-opacity:1"
         id="flowRegion3172-1"><rect
           style="fill:url(#linearGradient3042);fill-opacity:1"
           y="216"
           x="363"
           height="50"
           width="143"
           id="rect3174-8" /></flowRegion><flowPara
         style="fill:url(#linearGradient3046);fill-opacity:1"
         id="flowPara3176-7">G</flowPara></flowRoot><g
       id="g3016"
       style="opacity:0.4;fill:#000000;stroke:#000000;stroke-opacity:1"
       transform="matrix(1,0,0,0.9063461,-25.6,9.629495)"><g
         id="g3018"
         clip-path="url(#clipPath3020)"
         style="fill:#000000;stroke:#000000;stroke-opacity:1"><path
           d="m 196.4,114.63 0.07,0.01 0.07,0.01 0.07,0.01 0.07,0.01 0.07,0.02 0.08,0.02 0.07,0.02 0.07,0.03 0.07,0.03 0.07,0.04 0.07,0.04 0.08,0.05 0.07,0.05 0.07,0.06 0.07,0.07 0.07,0.08 0.07,0.1 0.08,0.1 0.07,0.11 0.07,0.13 0.07,0.13 0.07,0.16 0.08,0.16 0.07,0.19 0.07,0.19 0.07,0.21 0.07,0.23 0.07,0.25 0.08,0.26 0.07,0.28 0.07,0.29 0.07,0.31 0.07,0.33 0.07,0.34 0.08,0.35 0.07,0.36 0.07,0.37 0.07,0.38 0.07,0.39 0.07,0.4 0.08,0.4 0.07,0.4 0.07,0.41 0.07,0.4 0.07,0.41 0.07,0.4 0.08,0.41 0.07,0.39 0.07,0.4 0.07,0.39 0.07,0.39 0.07,0.38 0.08,0.38 0.07,0.38 0.07,0.38 0.07,0.38 0.07,0.38 0.07,0.39 0.08,0.4 0.07,0.4 0.07,0.41 0.07,0.43 0.07,0.45 0.07,0.46 0.08,0.48 0.07,0.51 0.07,0.53 0.07,0.56 0.07,0.58 0.07,0.62 0.08,0.64 0.07,0.68 0.07,0.7 0.07,0.74 0.07,0.76 0.07,0.8 0.08,0.83 0.07,0.86 0.07,0.88 0.07,0.91 0.07,0.94 0.07,0.96 0.08,0.98 0.07,1 0.07,1.02 0.07,1.05 0.07,1.06 0.07,1.09 0.08,1.1 0.07,1.12 0.07,1.14 0.07,1.16 0.07,1.18 0.07,1.21 0.08,1.23 0.07,1.26 0.07,1.3 0.07,1.33 0.07,1.37 0.07,1.41 0.08,1.44 0.07,1.5 0.07,1.56 0.07,1.6 0.07,1.65 0.07,1.71 0.08,1.76 0.07,1.83 0.07,1.88 0.07,1.93 0.07,1.99 0.07,2.03 0.08,2.09 0.07,2.13 0.07,2.16 0.07,2.19 0.07,2.22 0.08,2.24 0.07,2.24 0.07,2.25 0.07,2.25 0.07,2.24 0.07,2.21 0.08,2.19 0.07,2.16 0.07,2.13 0.07,2.08 0.07,2.05 0.07,1.99 0.08,1.94 0.07,1.9 0.07,1.85 0.07,1.82 0.07,1.76 0.07,1.72 0.08,1.69 0.07,1.67 0.07,1.65 0.07,1.63 0.07,1.62 0.07,1.63 0.08,1.63 0.07,1.65 0.07,1.68 0.07,1.71 0.07,1.74 0.07,1.8 0.08,1.84 0.07,1.89 0.07,1.96 0.07,2.03 0.07,2.1 0.07,2.16 0.08,2.23 0.07,2.32 0.07,2.39 0.07,2.47 0.07,2.53 0.07,2.62 0.08,2.68 0.07,2.78 0.07,2.84 0.07,2.92 0.07,2.98 0.07,3.05 0.08,3.13 0.07,3.19 0.07,3.26 0.07,3.31 0.07,3.37 0.07,3.43 0.08,3.48 0.07,3.53 0.07,3.56 0.07,3.59 0.07,3.62 0.07,3.65 0.08,3.65 0.07,3.65 0.07,3.64 0.07,3.63 0.07,3.59 0.07,3.54 0.08,3.49 0.07,3.43 0.07,3.36 0.07,3.26 0.07,3.14 0.07,3.04 0.08,2.91 0.07,2.8 0.07,2.64 0.07,2.47 0.07,2.32 0.07,2.17 0.08,2.01 0.07,1.85 0.07,1.65 0.07,1.49 0.07,1.34 0.07,1.18 0.08,1.04 0.07,0.87 0.07,0.73 0.07,0.61 0.07,0.5 0.07,0.39 0.08,0.29 0.07,0.19 0.07,0.11 0.07,0.06 0.07,-0.01 0.08,-0.05 0.07,-0.11 0.07,-0.14 0.07,-0.17 0.07,-0.2 0.07,-0.22 0.08,-0.24 0.07,-0.27 0.07,-0.28 0.07,-0.31 0.07,-0.33 0.07,-0.36 0.08,-0.4 0.07,-0.43 0.07,-0.46 0.07,-0.5 0.07,-0.55 0.07,-0.61 0.08,-0.65 0.07,-0.71 0.07,-0.76 0.07,-0.82 0.07,-0.89 0.07,-0.95 0.08,-1 0.07,-1.07 0.07,-1.12 0.07,-1.19 0.07,-1.25 0.07,-1.31 0.08,-1.36 0.07,-1.41 0.07,-1.47 0.07,-1.53 0.07,-1.58 0.07,-1.64 0.08,-1.68 0.07,-1.73 0.07,-1.8 0.07,-1.85 0.07,-1.9 0.07,-1.95 0.08,-2 0.07,-2.06 0.07,-2.11 0.07,-2.16 0.07,-2.2 0.07,-2.25 0.08,-2.28 0.07,-2.34 0.07,-2.36 0.07,-2.39 0.07,-2.42 0.07,-2.43 0.08,-2.45 0.07,-2.45 0.07,-2.46 0.07,-2.44 0.07,-2.44 0.07,-2.41 0.08,-2.38 0.07,-2.36 0.07,-2.32 0.07,-2.28 0.07,-2.24 0.07,-2.18 0.08,-2.13 0.07,-2.09 0.07,-2.03 0.07,-1.98 0.07,-1.92 0.07,-1.87 0.08,-1.82 0.07,-1.77 0.07,-1.74 0.07,-1.69 0.07,-1.65 0.07,-1.62 0.08,-1.6 0.07,-1.58 0.07,-1.57 0.07,-1.55 0.07,-1.55 0.07,-1.56 0.08,-1.56 0.07,-1.58 0.07,-1.59 0.07,-1.63 0.07,-1.64 0.07,-1.68 0.08,-1.72 0.07,-1.75 0.07,-1.8 0.07,-1.84 0.07,-1.88 0.08,-1.92 0.07,-1.97 0.07,-2.02 0.07,-2.06 0.07,-2.1 0.07,-2.13 0.08,-2.17 0.07,-2.21 0.07,-2.25 0.07,-2.27 0.07,-2.29 0.07,-2.31 0.08,-2.34 0.07,-2.35 0.07,-2.37 0.07,-2.37 0.07,-2.38 0.07,-2.39 0.08,-2.39 0.07,-2.38 0.07,-2.39 0.07,-2.37 0.07,-2.37 0.07,-2.36 0.08,-2.35 0.07,-2.33 0.07,-2.31 0.07,-2.3 0.07,-2.27 0.07,-2.24 0.08,-2.22 0.07,-2.18 0.07,-2.16 0.07,-2.12 0.07,-2.07 0.07,-2.03 0.08,-1.99 0.07,-1.95 0.07,-1.91 0.07,-1.84 0.07,-1.8 0.07,-1.75 0.08,-1.71 0.07,-1.66 0.07,-1.6 0.07,-1.55 0.07,-1.52 0.07,-1.47 0.08,-1.43 0.07,-1.39 0.07,-1.35 0.07,-1.32 0.07,-1.28 0.07,-1.26 0.08,-1.23 0.07,-1.2 0.07,-1.17 0.07,-1.15 0.07,-1.13 0.07,-1.1 0.08,-1.08 0.07,-1.06 0.07,-1.03 0.07,-1.01 0.07,-0.99 0.07,-0.97 0.08,-0.93 0.07,-0.92 0.07,-0.89 0.07,-0.86 0.07,-0.84 0.07,-0.81 0.08,-0.79 0.07,-0.76 0.07,-0.75 0.07,-0.71 0.07,-0.7 0.07,-0.67 0.08,-0.66 0.07,-0.63 0.07,-0.62 0.07,-0.61 0.07,-0.59 0.07,-0.57 0.08,-0.57 0.07,-0.55 0.07,-0.55 0.07,-0.53 0.07,-0.52 0.08,-0.52 0.07,-0.51 0.07,-0.49 0.07,-0.49 0.07,-0.48 0.07,-0.47 0.08,-0.47 0.07,-0.45 0.07,-0.44 0.07,-0.44 0.07,-0.42 0.07,-0.41 0.08,-0.4 0.07,-0.39 0.07,-0.38 0.07,-0.36 0.07,-0.35 0.07,-0.34 0.08,-0.32 0.07,-0.31 0.07,-0.3 0.07,-0.28 0.07,-0.27 0.07,-0.25 0.08,-0.23 0.07,-0.22 0.07,-0.2 0.07,-0.19 0.07,-0.17 0.07,-0.15 0.08,-0.13 0.07,-0.12 0.07,-0.1 0.07,-0.08 0.07,-0.06 0.07,-0.04 0.08,-0.03 0.07,-0.01 0.07,0.01 0.07,0.02 0.07,0.03 0.07,0.05 0.08,0.07 0.07,0.07 0.07,0.09 0.07,0.09 0.07,0.1 0.07,0.11 0.08,0.11 0.07,0.12 0.07,0.11 0.07,0.12 0.07,0.11 0.07,0.1 0.08,0.11 0.07,0.09 0.07,0.08 0.07,0.08 0.07,0.06 0.07,0.05 0.08,0.03 0.07,0.03 0.07,0 0.07,0 0.07,-0.03 0.07,-0.03 0.08,-0.05 0.07,-0.07 0.07,-0.07 0.07,-0.09 0.07,-0.1 0.07,-0.11 0.08,-0.12 0.07,-0.12 0.07,-0.14 0.07,-0.13 0.07,-0.14 0.07,-0.15 0.08,-0.14 0.07,-0.15 0.07,-0.14 0.07,-0.14 0.07,-0.14 0.07,-0.13 0.08,-0.13 0.07,-0.13 0.07,-0.12 0.07,-0.11 0.07,-0.11 0.07,-0.1 0.08,-0.09 0.07,-0.09 0.07,-0.08 0.07,-0.07 0.07,-0.07 0.08,-0.06 0.07,-0.05 0.07,-0.05 0.07,-0.05 0.07,-0.04 0.07,-0.03 0.08,-0.04 0.07,-0.02 0.07,-0.03 0.07,-0.02 0.07,-0.02 0.07,-0.01 0.08,-0.02 0.07,-0.01 0.07,-0.01 0.07,0 0.07,-0.01 0.07,-0.01 0.08,0 0.07,-0.01"
           style="fill:#000000;stroke:#000000;stroke-width:1.5;stroke-linecap:round;stroke-linejoin:round;stroke-miterlimit:10;stroke-opacity:1;stroke-dasharray:none"
           id="path3024"
           inkscape:connector-curvature="0" /></g></g></g></svg>